<svg width="0" height="0" class="hidden">
  <symbol version="1.0" xmlns="http://www.w3.org/2000/svg" preserveAspectRatio="xMidYMid meet" viewBox="0 0 512.000000 512.000000" id="git">
    <g transform="translate(0.000000,512.000000) scale(0.100000,-0.100000)" fill="#000000" stroke="none"></g>
  </symbol>
  <symbol version="1.0" xmlns="http://www.w3.org/2000/svg" preserveAspectRatio="xMidYMid meet" viewBox="0 0 2307.000000 1093.000000" id="rs_school_js">
    <g transform="translate(0.000000,1093.000000) scale(0.100000,-0.100000)" fill="#000000" stroke="none"></g>
  </symbol>
  <symbol fill="" xmlns="http://www.w3.org/2000/svg" viewBox="0 0 30 30" id="logo">
    <path d="M2.59123 7.8325C2.83304 7.525 3.15151 7.10875 3.40654 6.81125C4.17032 5.99125 4.26942 5.88375 4.96449 5.2775C5.17063 5.1175 5.41509 4.925 5.65426 4.74375C3.89018 6.15625 3.66554 7.72 5.28427 8.68625C5.28163 8.68625 5.28163 8.68625 5.28163 8.68875C7.54521 9.97875 12.5058 9.7 16.4198 8.0475C20.211 6.4475 21.6103 4.15875 19.7392 2.79875C18.0967 2.5075 16.1384 2.47375 14.0664 2.73625L13.851 2.4L14.0294 1.8425C15.2477 1.73875 16.4053 1.76375 17.4043 1.925C17.6461 1.96375 17.9646 2.03 18.2024 2.0775C18.6623 2.18375 18.912 2.2475 19.212 2.33875C19.5185 2.425 19.7802 2.51125 20.2361 2.67125C20.6827 2.8375 20.8756 2.9125 21.2337 3.08125C21.6348 3.25433 22.0244 3.4501 22.4005 3.6675C25.3817 5.44125 23.5277 8.6775 18.2672 10.895C13.0211 13.105 6.33611 13.4525 3.34047 11.7C3.33915 11.6975 3.33518 11.695 3.32725 11.6925H3.33254C1.69663 10.7125 1.52484 9.29 2.59123 7.8325ZM16.2401 20.2325L16.1978 18.24L14.7007 16.665C9.75461 17.725 4.89313 17.4975 2.18952 15.9913C2.18027 15.9812 2.1578 15.9713 2.14855 15.9613C0.618354 15.07 0.24043 13.92 0.355393 12.67C-0.00271022 14.4987 -0.0317813 15.1587 0.0197538 16.7237C0.0831817 17.7037 0.681782 18.6075 1.88559 19.32L1.89484 19.33C4.77684 21.025 10.7814 21.3925 16.2401 20.2325ZM22.4838 22.5138C15.5028 25.1625 6.76557 25.3188 2.97047 22.8675C3.38032 23.815 3.93798 24.6989 4.62488 25.49C8.10813 27.74 16.1278 27.5963 22.5327 25.165C26.2815 23.7437 28.6469 21.8525 29.2679 20.08L29.4424 19.5462C29.856 18.1938 29.9339 17.0675 30 16.065C29.9247 18.2413 27.2145 20.7162 22.4838 22.5138ZM7.07346 27.615C7.29282 27.8125 7.98259 28.6138 11.4777 29.4988C12.4225 29.6963 14.8011 30.33 19.1948 29.4088L19.2212 29.03L18.8737 28.515C14.7971 29.4275 10.2686 29.1225 7.07346 27.615ZM17.1611 11.8538L20.873 14.515C20.873 14.515 21.6672 15.0562 20.9179 15.4362C20.1713 15.8125 18.2539 16.7337 18.2539 16.7337L16.3604 16.065L15.4103 16.465L17.0858 17.8412L17.099 19.9825L18.0835 19.5688L18.7363 17.76C18.7363 17.76 20.7409 17.03 21.5363 16.755C22.3358 16.4862 22.2288 17.4062 22.2288 17.4062L21.835 21.795L23.1432 21.245L25.2971 15.3237C25.2971 15.3237 26.4388 14.7987 27.2422 14.3375C28.0443 13.8763 28.3192 13.1112 28.3192 13.1112C28.3192 13.1112 27.5369 12.7925 26.6357 13.0487C25.7345 13.3025 24.5597 13.755 24.5597 13.755L18.4654 11.3062L17.1611 11.8538ZM9.30797 3.43375L11.8279 5.3325L12.5164 5.235L11.1447 3.53125C11.1447 3.53125 10.8461 3.17875 11.2478 3.095C11.6522 3.01 12.6749 2.8125 12.6749 2.8125L13.444 3.39375L13.962 3.32125L13.3753 2.43875L13.6845 1.46L13.1837 1.52875L12.5904 2.27375C12.5904 2.27375 11.5491 2.36625 11.1395 2.39875C10.7272 2.42875 10.9042 2.01 10.9042 2.01L11.6944 0L11.002 0.09625L9.17848 2.6075C9.17848 2.6075 8.57063 2.7125 8.1306 2.83125C7.68924 2.94875 7.45667 3.27125 7.45667 3.27125C7.45667 3.27125 7.78042 3.51875 8.23631 3.51C8.69616 3.50125 9.30797 3.43375 9.30797 3.43375ZM21.7623 27.8312L20.1317 27.025L19.7564 27.1488L20.7224 27.9662C20.7224 27.9662 20.9285 28.1325 20.7118 28.2212C20.4951 28.3088 19.9427 28.5238 19.9427 28.5238L19.4868 28.3313L19.2159 28.4237L19.5952 28.8062L19.5582 29.365L19.841 29.2725L20.0524 28.8188C20.0524 28.8188 20.6259 28.6575 20.8545 28.6C21.0818 28.5412 21.0302 28.7938 21.0302 28.7938L20.8148 30L21.1915 29.8762L21.9301 28.2812C21.9301 28.2812 22.2565 28.16 22.4904 28.0487C22.7243 27.9375 22.8168 27.7325 22.8168 27.7325C22.8168 27.7325 22.6093 27.625 22.353 27.6787C22.0953 27.73 21.7623 27.8312 21.7623 27.8312Z" fill="white"></path>
  </symbol>
  <symbol fill="" xmlns="http://www.w3.org/2000/svg" viewBox="0 0 15 26" id="next">
    <path d="M0.924346 1.0675C0.572838 1.41911 0.375371 1.89594 0.375371 2.39312C0.375371 2.89031 0.572838 3.36713 0.924346 3.71875L10.2056 13L0.924346 22.2812C0.5828 22.6349 0.39381 23.1085 0.398083 23.6001C0.402354 24.0917 0.599545 24.562 0.947186 24.9097C1.29483 25.2573 1.7651 25.4545 2.25672 25.4588C2.74834 25.463 3.22197 25.274 3.57559 24.9325L14.1825 14.3256C14.534 13.974 14.7314 13.4972 14.7314 13C14.7314 12.5028 14.534 12.026 14.1825 11.6744L3.57559 1.0675C3.22398 0.715991 2.74715 0.518524 2.24997 0.518524C1.75279 0.518524 1.27596 0.715991 0.924346 1.0675Z" fill="#F2785C"></path>
  </symbol>
  <symbol fill="" xmlns="http://www.w3.org/2000/svg" viewBox="0 0 15 26" id="prev">
    <path d="M14.0757 24.9325C14.4272 24.5809 14.6246 24.1041 14.6246 23.6069C14.6246 23.1097 14.4272 22.6329 14.0757 22.2813L4.7944 13L14.0757 3.71875C14.4172 3.36512 14.6062 2.89149 14.6019 2.39987C14.5976 1.90825 14.4005 1.43798 14.0528 1.09034C13.7052 0.742699 13.2349 0.545507 12.7433 0.541237C12.2517 0.536964 11.778 0.725954 11.4244 1.0675L0.817529 11.6744C0.466021 12.026 0.268555 12.5028 0.268555 13C0.268555 13.4972 0.466021 13.974 0.817529 14.3256L11.4244 24.9325C11.776 25.284 12.2528 25.4815 12.75 25.4815C13.2472 25.4815 13.724 25.284 14.0757 24.9325Z" fill="#F2785C"></path>
  </symbol>
  <symbol fill="" xmlns="http://www.w3.org/2000/svg" viewBox="0 0 100 100" id="plane">
    <rect width="100" height="100" rx="16" fill="#F2785C"></rect>
    <path d="M73.9305 70.9545C73.9305 71.497 73.7174 72.0173 73.3379 72.4009C72.9585 72.7845 72.4439 73 71.9074 73H35.4904C34.9539 73 34.4393 72.7845 34.0598 72.4009C33.6804 72.0173 33.4673 71.497 33.4673 70.9545C33.4673 70.4121 33.6804 69.8918 34.0598 69.5082C34.4393 69.1246 34.9539 68.9091 35.4904 68.9091H71.9074C72.4439 68.9091 72.9585 69.1246 73.3379 69.5082C73.7174 69.8918 73.9305 70.4121 73.9305 70.9545ZM80 50.5V56.6364C80 57.1789 79.7868 57.6991 79.4074 58.0827C79.028 58.4663 78.5134 58.6818 77.9768 58.6818H33.4167C31.24 58.6894 29.1194 57.9834 27.3731 56.6696C25.6268 55.3558 24.3488 53.5051 23.7308 51.3949L20.165 39.4034C19.9879 38.7898 19.9528 38.1431 20.0624 37.5136C20.1721 36.884 20.4235 36.2884 20.7972 35.7728C21.1794 35.2642 21.6727 34.8518 22.2387 34.5679C22.8046 34.2841 23.4278 34.1364 24.0596 34.1364H28.4094C28.7047 34.137 28.9963 34.2038 29.263 34.332C29.5298 34.4603 29.7651 34.6467 29.952 34.8779L34.403 40.2727H38.7528L36.4767 33.3949C36.2718 32.7789 36.215 32.1225 36.3111 31.4799C36.4071 30.8373 36.6531 30.2271 37.0288 29.6998C37.4046 29.1725 37.8991 28.7432 38.4716 28.4477C39.0441 28.1521 39.6779 27.9986 40.3207 28H44.5947C44.8756 27.9985 45.1537 28.057 45.4108 28.1715C45.6679 28.2861 45.8983 28.4542 46.0867 28.6648L56.6072 40.2727H69.8842C72.5671 40.2727 75.1401 41.3503 77.0372 43.2682C78.9342 45.1862 80 47.7876 80 50.5ZM75.9537 50.5C75.947 48.8746 75.3054 47.3177 74.1686 46.1684C73.0318 45.0191 71.4919 44.3704 69.8842 44.3637H55.7221C55.4411 44.3651 55.163 44.3067 54.9059 44.1922C54.6488 44.0776 54.4185 43.9095 54.23 43.6989L43.7095 32.0909H40.3207L43.4819 41.679C43.5809 41.9865 43.6073 42.3132 43.559 42.6328C43.5107 42.9525 43.389 43.2563 43.2037 43.5199C43.0169 43.7837 42.77 43.9981 42.4838 44.1449C42.1977 44.2918 41.8808 44.3668 41.5599 44.3637H33.4673C33.1719 44.363 32.8804 44.2962 32.6136 44.168C32.3469 44.0398 32.1115 43.8534 31.9246 43.6222L27.4737 38.2273H24.0343L27.6001 50.2188C27.9719 51.4853 28.7396 52.5959 29.7883 53.3841C30.8369 54.1723 32.11 54.5958 33.4167 54.5909H75.9537V50.5Z" fill="white"></path>
  </symbol>
  <symbol fill="" xmlns="http://www.w3.org/2000/svg" viewBox="0 0 100 100" id="calendar">
    <rect width="100" height="100" rx="16" fill="#F2785C"></rect>
    <path d="M37.7222 52.8889C38.6799 52.8889 39.5984 52.5084 40.2757 51.8312C40.9529 51.154 41.3333 50.2355 41.3333 49.2778C41.3333 48.3201 40.9529 47.4016 40.2757 46.7243C39.5984 46.0471 38.6799 45.6667 37.7222 45.6667C36.7645 45.6667 35.846 46.0471 35.1688 46.7243C34.4916 47.4016 34.1111 48.3201 34.1111 49.2778C34.1111 50.2355 34.4916 51.154 35.1688 51.8312C35.846 52.5084 36.7645 52.8889 37.7222 52.8889ZM53.6111 49.2778C53.6111 50.2355 53.2307 51.154 52.5534 51.8312C51.8762 52.5084 50.9577 52.8889 50 52.8889C49.0423 52.8889 48.1238 52.5084 47.4466 51.8312C46.7693 51.154 46.3889 50.2355 46.3889 49.2778C46.3889 48.3201 46.7693 47.4016 47.4466 46.7243C48.1238 46.0471 49.0423 45.6667 50 45.6667C50.9577 45.6667 51.8762 46.0471 52.5534 46.7243C53.2307 47.4016 53.6111 48.3201 53.6111 49.2778ZM62.2778 52.8889C63.2355 52.8889 64.154 52.5084 64.8312 51.8312C65.5084 51.154 65.8889 50.2355 65.8889 49.2778C65.8889 48.3201 65.5084 47.4016 64.8312 46.7243C64.154 46.0471 63.2355 45.6667 62.2778 45.6667C61.32 45.6667 60.4016 46.0471 59.7243 46.7243C59.0471 47.4016 58.6667 48.3201 58.6667 49.2778C58.6667 50.2355 59.0471 51.154 59.7243 51.8312C60.4016 52.5084 61.32 52.8889 62.2778 52.8889ZM41.3333 60.8333C41.3333 61.7911 40.9529 62.7096 40.2757 63.3868C39.5984 64.064 38.6799 64.4444 37.7222 64.4444C36.7645 64.4444 35.846 64.064 35.1688 63.3868C34.4916 62.7096 34.1111 61.7911 34.1111 60.8333C34.1111 59.8756 34.4916 58.9571 35.1688 58.2799C35.846 57.6027 36.7645 57.2222 37.7222 57.2222C38.6799 57.2222 39.5984 57.6027 40.2757 58.2799C40.9529 58.9571 41.3333 59.8756 41.3333 60.8333ZM50 64.4444C50.9577 64.4444 51.8762 64.064 52.5534 63.3868C53.2307 62.7096 53.6111 61.7911 53.6111 60.8333C53.6111 59.8756 53.2307 58.9571 52.5534 58.2799C51.8762 57.6027 50.9577 57.2222 50 57.2222C49.0423 57.2222 48.1238 57.6027 47.4466 58.2799C46.7693 58.9571 46.3889 59.8756 46.3889 60.8333C46.3889 61.7911 46.7693 62.7096 47.4466 63.3868C48.1238 64.064 49.0423 64.4444 50 64.4444ZM24 33.0278C24 30.6335 24.9511 28.3372 26.6442 26.6442C28.3372 24.9511 30.6335 24 33.0278 24H66.9722C69.3665 24 71.6628 24.9511 73.3558 26.6442C75.0489 28.3372 76 30.6335 76 33.0278V66.9722C76 69.3665 75.0489 71.6628 73.3558 73.3558C71.6628 75.0489 69.3665 76 66.9722 76H33.0278C30.6335 76 28.3372 75.0489 26.6442 73.3558C24.9511 71.6628 24 69.3665 24 66.9722V33.0278ZM33.0278 27.6111C31.5912 27.6111 30.2134 28.1818 29.1976 29.1976C28.1818 30.2134 27.6111 31.5912 27.6111 33.0278V35.5556H72.3889V33.0278C72.3889 31.5912 71.8182 30.2134 70.8024 29.1976C69.7866 28.1818 68.4088 27.6111 66.9722 27.6111H33.0278ZM27.6111 66.9722C27.6111 68.4088 28.1818 69.7866 29.1976 70.8024C30.2134 71.8182 31.5912 72.3889 33.0278 72.3889H66.9722C68.4088 72.3889 69.7866 71.8182 70.8024 70.8024C71.8182 69.7866 72.3889 68.4088 72.3889 66.9722V39.1667H27.6111V66.9722Z" fill="white"></path>
  </symbol>
  <symbol viewBox="0 0 0 0" id="sprite">
    <symbol fill="" xmlns="http://www.w3.org/2000/svg" viewBox="0 0 40 41" id="arrow">
      <path fill-rule="evenodd" clip-rule="evenodd" d="M2.5 20.5001C2.5 20.1686 2.6317 19.8507 2.86612 19.6162C3.10054 19.3818 3.41848 19.2501 3.75 19.2501H33.2325L25.365 11.3851C25.1303 11.1504 24.9984 10.8321 24.9984 10.5001C24.9984 10.1682 25.1303 9.84983 25.365 9.61511C25.5997 9.3804 25.9181 9.24854 26.25 9.24854C26.5819 9.24854 26.9003 9.3804 27.135 9.61511L37.135 19.6151C37.2514 19.7312 37.3438 19.8692 37.4068 20.021C37.4698 20.1729 37.5022 20.3357 37.5022 20.5001C37.5022 20.6645 37.4698 20.8273 37.4068 20.9792C37.3438 21.1311 37.2514 21.269 37.135 21.3851L27.135 31.3851C26.9003 31.6198 26.5819 31.7517 26.25 31.7517C25.9181 31.7517 25.5997 31.6198 25.365 31.3851C25.1303 31.1504 24.9984 30.8321 24.9984 30.5001C24.9984 30.1682 25.1303 29.8498 25.365 29.6151L33.2325 21.7501H3.75C3.41848 21.7501 3.10054 21.6184 2.86612 21.384C2.6317 21.1496 2.5 20.8316 2.5 20.5001Z" fill="white"></path>
    </symbol>
    <symbol fill="" xmlns="http://www.w3.org/2000/svg" viewBox="0 0 32 32" id="insta">
      <path fill-rule="evenodd" clip-rule="evenodd" d="M9.46778 0.494892C11.1126 0.419171 11.6371 0.402344 15.827 0.402344C20.0169 0.402344 20.5413 0.420573 22.1848 0.494892C23.8282 0.569211 24.95 0.831432 25.9316 1.21144C26.9594 1.59986 27.8919 2.20704 28.6632 2.9923C29.4484 3.76213 30.0542 4.69322 30.4412 5.72247C30.8226 6.70405 31.0834 7.82584 31.1592 9.46647C31.2349 11.1141 31.2517 11.6386 31.2517 15.8271C31.2517 20.017 31.2335 20.5414 31.1592 22.1863C31.0848 23.8269 30.8226 24.9487 30.4412 25.9303C30.0542 26.9596 29.4474 27.8923 28.6632 28.6632C27.8919 29.4485 26.9594 30.0543 25.9316 30.4413C24.95 30.8227 23.8282 31.0835 22.1876 31.1593C20.5413 31.235 20.0169 31.2518 15.827 31.2518C11.6371 31.2518 11.1126 31.2336 9.46778 31.1593C7.82716 31.0849 6.70536 30.8227 5.72378 30.4413C4.69442 30.0542 3.76179 29.4475 2.9908 28.6632C2.20608 27.893 1.59881 26.9608 1.21135 25.9317C0.83134 24.9501 0.570522 23.8283 0.494801 22.1877C0.419079 20.54 0.402252 20.0156 0.402252 15.8271C0.402252 11.6372 0.420481 11.1127 0.494801 9.46928C0.56912 7.82584 0.83134 6.70405 1.21135 5.72247C1.59938 4.69334 2.20711 3.76117 2.9922 2.99089C3.76209 2.20634 4.69379 1.59908 5.72238 1.21144C6.70395 0.831432 7.82575 0.570613 9.46638 0.494892H9.46778ZM22.06 3.27134C20.4334 3.19702 19.9454 3.1816 15.827 3.1816C11.7086 3.1816 11.2206 3.19702 9.59399 3.27134C8.08938 3.34005 7.27327 3.59106 6.72919 3.80279C6.00984 4.08324 5.49522 4.41558 4.95535 4.95544C4.44359 5.45331 4.04975 6.05941 3.8027 6.72929C3.59096 7.27336 3.33996 8.08947 3.27125 9.59408C3.19693 11.2207 3.18151 11.7087 3.18151 15.8271C3.18151 19.9455 3.19693 20.4335 3.27125 22.0601C3.33996 23.5647 3.59096 24.3808 3.8027 24.9249C4.0495 25.5937 4.44353 26.2009 4.95535 26.6987C5.45315 27.2105 6.06032 27.6046 6.72919 27.8513C7.27327 28.0631 8.08938 28.3141 9.59399 28.3828C11.2206 28.4571 11.7072 28.4725 15.827 28.4725C19.9468 28.4725 20.4334 28.4571 22.06 28.3828C23.5646 28.3141 24.3807 28.0631 24.9248 27.8513C25.6441 27.5709 26.1587 27.2386 26.6986 26.6987C27.2104 26.2009 27.6045 25.5937 27.8513 24.9249C28.063 24.3808 28.314 23.5647 28.3827 22.0601C28.457 20.4335 28.4725 19.9455 28.4725 15.8271C28.4725 11.7087 28.457 11.2207 28.3827 9.59408C28.314 8.08947 28.063 7.27336 27.8513 6.72929C27.5708 6.00993 27.2385 5.49531 26.6986 4.95544C26.2007 4.44372 25.5946 4.04989 24.9248 3.80279C24.3807 3.59106 23.5646 3.34005 22.06 3.27134ZM13.8568 20.5821C14.9571 21.0401 16.1823 21.1019 17.3231 20.757C18.4639 20.412 19.4495 19.6817 20.1117 18.6908C20.7739 17.6999 21.0715 16.5098 20.9537 15.3238C20.8359 14.1378 20.31 13.0295 19.4658 12.1882C18.9277 11.6504 18.277 11.2387 17.5606 10.9825C16.8442 10.7264 16.08 10.6322 15.3229 10.7069C14.5657 10.7816 13.8346 11.0232 13.1821 11.4144C12.5295 11.8055 11.9718 12.3365 11.5491 12.9691C11.1264 13.6016 10.8493 14.3201 10.7375 15.0726C10.6258 15.8252 10.6823 16.5931 10.903 17.3212C11.1237 18.0493 11.5031 18.7194 12.0139 19.2832C12.5246 19.8471 13.154 20.2907 13.8568 20.5821ZM10.2208 10.2209C10.957 9.48467 11.831 8.90067 12.7929 8.50223C13.7548 8.1038 14.7858 7.89872 15.827 7.89872C16.8681 7.89872 17.8991 8.1038 18.861 8.50223C19.8229 8.90067 20.697 9.48467 21.4332 10.2209C22.1694 10.9571 22.7534 11.8311 23.1518 12.793C23.5503 13.7549 23.7553 14.7859 23.7553 15.8271C23.7553 16.8682 23.5503 17.8992 23.1518 18.8611C22.7534 19.823 22.1694 20.697 21.4332 21.4333C19.9463 22.9201 17.9297 23.7554 15.827 23.7554C13.7243 23.7554 11.7076 22.9201 10.2208 21.4333C8.73394 19.9464 7.89863 17.9298 7.89863 15.8271C7.89863 13.7243 8.73394 11.7077 10.2208 10.2209ZM25.5137 9.07945C25.6961 8.90735 25.8422 8.7004 25.9432 8.47084C26.0442 8.24128 26.0982 7.99379 26.1018 7.74301C26.1055 7.49224 26.0588 7.24328 25.9645 7.01087C25.8702 6.77847 25.7303 6.56734 25.5529 6.39C25.3756 6.21265 25.1644 6.07269 24.932 5.97841C24.6996 5.88412 24.4507 5.83742 24.1999 5.84108C23.9491 5.84473 23.7016 5.89867 23.4721 5.99969C23.2425 6.10071 23.0356 6.24677 22.8635 6.4292C22.5288 6.78402 22.3455 7.2553 22.3526 7.74301C22.3597 8.23073 22.5566 8.69647 22.9015 9.04137C23.2464 9.38628 23.7122 9.58318 24.1999 9.59029C24.6876 9.5974 25.1589 9.41416 25.5137 9.07945Z" fill="#F8F8F8"></path>
    </symbol>
    <symbol fill="" xmlns="http://www.w3.org/2000/svg" viewBox="0 0 34 34" id="twitter">
      <g clip-path="url(#clip0_72_17)">
        <path d="M33.4612 6.92278C32.2903 7.44162 31.0325 7.79218 29.7102 7.95063C31.0746 7.13423 32.0953 5.84932 32.582 4.33564C31.3001 5.09704 29.8972 5.63299 28.4341 5.92018C27.4503 4.86971 26.1472 4.17344 24.7271 3.93947C23.3069 3.7055 21.8493 3.94692 20.5805 4.62626C19.3116 5.30559 18.3026 6.38483 17.71 7.69641C17.1173 9.00799 16.9743 10.4785 17.3031 11.8797C14.7057 11.7493 12.1647 11.0742 9.84514 9.89822C7.52554 8.72223 5.47913 7.07165 3.83872 5.05359C3.27782 6.02114 2.9553 7.14294 2.9553 8.33765C2.95468 9.41317 3.21953 10.4722 3.72637 11.4208C4.23321 12.3694 4.96635 13.1783 5.86076 13.7756C4.82348 13.7426 3.80909 13.4623 2.90202 12.9581V13.0422C2.90191 14.5506 3.4237 16.0127 4.37884 17.1802C5.33398 18.3478 6.66365 19.1489 8.14222 19.4477C7.17997 19.7081 6.17113 19.7464 5.19189 19.5598C5.60905 20.8578 6.42165 21.9928 7.51593 22.8059C8.6102 23.6191 9.93137 24.0697 11.2945 24.0947C8.98053 25.9112 6.12282 26.8965 3.18106 26.8922C2.65996 26.8923 2.1393 26.8619 1.62177 26.801C4.60782 28.721 8.0838 29.7399 11.6338 29.7359C23.6511 29.7359 30.2206 19.7828 30.2206 11.1506C30.2206 10.8701 30.2136 10.5869 30.201 10.3064C31.4788 9.38229 32.5819 8.23795 33.4584 6.92699L33.4612 6.92278Z" fill="#F8F8F8"></path>
      </g>
      <defs>
        <clipPath id="clip0_72_17">
          <rect width="33.6539" height="33.6539" fill="white" transform="translate(0.307861)"></rect>
        </clipPath>
      </defs>
    </symbol>
    <symbol fill="none" xmlns="http://www.w3.org/2000/svg" viewBox="0 0 35 34" id="youtube">
      <path d="M25.8944 5.60889H9.06742C5.96967 5.60889 3.45844 8.12012 3.45844 11.2179V22.4359C3.45844 25.5336 5.96967 28.0449 9.06742 28.0449H25.8944C28.9922 28.0449 31.5034 25.5336 31.5034 22.4359V11.2179C31.5034 8.12012 28.9922 5.60889 25.8944 5.60889Z" stroke="#F8F8F8" stroke-width="4.16667" stroke-linecap="round" stroke-linejoin="round"></path>
      <path d="M21.6876 16.8269L14.6764 12.6201V21.0336L21.6876 16.8269Z" stroke="#F8F8F8" stroke-width="4.16667" stroke-linecap="round" stroke-linejoin="round"></path>
    </symbol>
  </symbol>
  <symbol fill="" xmlns="http://www.w3.org/2000/svg" viewBox="0 0 100 100" id="bicycle">
    <rect width="100" height="100" rx="16" fill="#F2785C"></rect>
    <path d="M35.4167 69.7548C33.4828 69.7548 31.6281 68.957 30.2607 67.537C28.8932 66.1169 28.125 64.1909 28.125 62.1827C28.125 60.1744 28.8932 58.2484 30.2607 56.8284C31.6281 55.4084 33.4828 54.6106 35.4167 54.6106C37.3505 54.6106 39.2052 55.4084 40.5727 56.8284C41.9401 58.2484 42.7083 60.1744 42.7083 62.1827C42.7083 64.1909 41.9401 66.1169 40.5727 67.537C39.2052 68.957 37.3505 69.7548 35.4167 69.7548ZM35.4167 51.3654C32.654 51.3654 30.0045 52.5051 28.051 54.5337C26.0975 56.5623 25 59.3138 25 62.1827C25 65.0516 26.0975 67.803 28.051 69.8317C30.0045 71.8603 32.654 73 35.4167 73C38.1793 73 40.8289 71.8603 42.7824 69.8317C44.7359 67.803 45.8333 65.0516 45.8333 62.1827C45.8333 59.3138 44.7359 56.5623 42.7824 54.5337C40.8289 52.5051 38.1793 51.3654 35.4167 51.3654ZM55.8333 47.0385H64.5833V43.1442H57.9167L53.875 36.0697C53.2708 34.988 52.0833 34.274 50.8333 34.274C49.8542 34.274 48.9583 34.6851 48.3333 35.3558L40.625 43.3389C39.9792 44.0096 39.5833 44.875 39.5833 45.9567C39.5833 47.3197 40.2708 48.4663 41.3542 49.137L48.3333 53.5288V64.3462H52.0833V50.2837L47.3958 46.7139L52.2292 41.6298L55.8333 47.0385ZM64.5833 69.7548C62.6495 69.7548 60.7948 68.957 59.4273 67.537C58.0599 66.1169 57.2917 64.1909 57.2917 62.1827C57.2917 60.1744 58.0599 58.2484 59.4273 56.8284C60.7948 55.4084 62.6495 54.6106 64.5833 54.6106C66.5172 54.6106 68.3719 55.4084 69.7393 56.8284C71.1068 58.2484 71.875 60.1744 71.875 62.1827C71.875 64.1909 71.1068 66.1169 69.7393 67.537C68.3719 68.957 66.5172 69.7548 64.5833 69.7548ZM64.5833 51.3654C61.8207 51.3654 59.1711 52.5051 57.2176 54.5337C55.2641 56.5623 54.1667 59.3138 54.1667 62.1827C54.1667 65.0516 55.2641 67.803 57.2176 69.8317C59.1711 71.8603 61.8207 73 64.5833 73C65.9513 73 67.3058 72.7202 68.5696 72.1766C69.8334 71.633 70.9818 70.8362 71.949 69.8317C72.9163 68.8272 73.6836 67.6347 74.2071 66.3223C74.7306 65.0099 75 63.6032 75 62.1827C75 60.7621 74.7306 59.3555 74.2071 58.0431C73.6836 56.7307 72.9163 55.5382 71.949 54.5337C70.9818 53.5292 69.8334 52.7324 68.5696 52.1888C67.3058 51.6452 65.9513 51.3654 64.5833 51.3654ZM58.3333 35.7885C60.4167 35.7885 62.0833 34.0577 62.0833 31.8942C62.0833 29.7308 60.4167 28 58.3333 28C56.25 28 54.5833 29.7308 54.5833 31.8942C54.5833 34.0577 56.25 35.7885 58.3333 35.7885Z" fill="white"></path>
  </symbol>
  
</svg>